<?xml version="1.0" encoding="utf-8"?>
<!-- Generator: Adobe Illustrator 22.1.0, SVG Export Plug-In . SVG Version: 6.00 Build 0)  -->
<svg version="1.1" xmlns="http://www.w3.org/2000/svg" xmlns:xlink="http://www.w3.org/1999/xlink" x="0px" y="0px"
	 viewBox="0 0 595 586.1" style="enable-background:new 0 0 595 586.1;" xml:space="preserve">
<style type="text/css">
	.st0{display:none;}
	.st1{fill-rule:evenodd;clip-rule:evenodd;fill:#85BB65;}
</style>
<g id="Guides_For_Artboard" class="st0">
</g>
<g id="Layer_1">
	<g>
		<path class="st1" d="M309.2,376.1c10.3-0.8,18.1-4.2,23.4-9.2c5.3-5.3,8.1-12.3,8.1-21.2c0-7-2.5-13.1-7.5-18.4
			c-5-5.3-13.1-10-24.2-14.2L309.2,376.1z M289.1,205.5c-9.2,1.4-15.9,4.2-20.6,8.6c-4.5,4.5-6.7,10.3-6.7,17.6
			c0,5.9,2.2,11.1,6.7,16.2c4.5,4.7,11.4,9.2,20.6,13.1V205.5z M312.5,267.7c25.9,9.8,44.3,20.1,55.2,31.5
			c10.6,11.1,15.9,25.1,15.9,42.1c0,19.5-6.4,35.7-19.5,47.9c-13.1,12.3-31.2,19.5-54.9,21.7v29.3h-23.4v-29.5
			c-15.9-1.1-29.8-4.7-42.4-10.6c-12.3-6.1-23.1-14.5-32.3-25.1l25.9-26.2c7.5,8.9,15.3,15.3,23.4,19.8c8.1,4.2,16.4,6.4,25.4,6.4
			v-68.8c-24.8-10-42.4-20.1-52.4-30.4c-10-10.6-15.1-23.1-15.1-38.2c0-18.4,6.1-33.4,18.7-45.4c12.5-12,29.8-19.2,52.1-22.3v-24
			h23.4v24c12.8,1.4,24.5,4.5,34.6,8.9c10,4.5,19.2,10.6,27.3,18.7L351,226.1c-5.9-6.4-12-11.4-18.1-14.5
			c-6.4-3.3-13.1-5.3-20.3-5.9V267.7z M297.5,64.5c126.3,0,228.6,102.3,228.6,228.6S423.8,521.6,297.5,521.6
			C171.2,521.6,68.9,419.3,68.9,293S171.2,64.5,297.5,64.5L297.5,64.5z M297.5,111.9c100.1,0,181.2,81.1,181.2,181.2
			s-81.1,181.2-181.2,181.2c-100.1,0-181.2-81.1-181.2-181.2S197.4,111.9,297.5,111.9L297.5,111.9z"/>
	</g>
</g>
</svg>
